<?xml version="1.0" encoding="UTF-8" standalone="no"?>
<!-- Created with Inkscape (http://www.inkscape.org/) -->

<svg
   width="509.44183"
   height="444.49084"
   viewBox="0 0 509.44183 444.49084"
   version="1.1"
   id="svg5"
   inkscape:version="1.1.2 (b8e25be833, 2022-02-05)"
   sodipodi:docname="zest_icon.svg"
   xmlns:inkscape="http://www.inkscape.org/namespaces/inkscape"
   xmlns:sodipodi="http://sodipodi.sourceforge.net/DTD/sodipodi-0.dtd"
   xmlns:xlink="http://www.w3.org/1999/xlink"
   xmlns="http://www.w3.org/2000/svg"
   xmlns:svg="http://www.w3.org/2000/svg">
  <sodipodi:namedview
     id="namedview7"
     pagecolor="#505050"
     bordercolor="#ffffff"
     borderopacity="1"
     inkscape:pageshadow="0"
     inkscape:pageopacity="0"
     inkscape:pagecheckerboard="1"
     inkscape:document-units="px"
     showgrid="false"
     inkscape:zoom="1.2056723"
     inkscape:cx="166.71197"
     inkscape:cy="195.32671"
     inkscape:window-width="1812"
     inkscape:window-height="1082"
     inkscape:window-x="95"
     inkscape:window-y="107"
     inkscape:window-maximized="0"
     inkscape:current-layer="layer1" />
  <defs
     id="defs2">
    <linearGradient
       inkscape:collect="always"
       id="linearGradient1454">
      <stop
         style="stop-color:#ff6901;stop-opacity:1"
         offset="0"
         id="stop1450" />
      <stop
         style="stop-color:#ffad01;stop-opacity:1"
         offset="1"
         id="stop1452" />
    </linearGradient>
    <linearGradient
       inkscape:collect="always"
       xlink:href="#linearGradient1454"
       id="linearGradient2158"
       gradientUnits="userSpaceOnUse"
       x1="1.999995"
       y1="487.00815"
       x2="511.44183"
       y2="42.601429" />
  </defs>
  <g
     inkscape:label="Layer 1"
     inkscape:groupmode="layer"
     id="layer1"
     transform="translate(-1.999995,-42.523166)">
    <path
       style="fill:url(#linearGradient2158);fill-opacity:1;stroke:none;stroke-width:0.338725"
       d="m 95.149265,229.23871 h 0.33873 c 4.21847,-7.25514 5.562535,-16.12431 9.232945,-23.71072 10.28368,-21.25294 24.1636,-40.7794 42.93064,-55.40723 16.78041,-13.07951 37.71631,-21.6672 58.93808,-23.7971 12.79024,-1.28376 25.45516,-0.73469 38.27588,-0.73469 h 57.58319 c 13.90634,0 27.76864,0.36108 41.66313,0.33872 7.32322,-0.0119 15.12744,-1.40232 22.35582,0.33873 -2.83174,8.32111 -8.31908,15.56033 -12.80379,23.03328 -6.4798,10.80057 -12.50233,21.91514 -18.74841,32.85629 L 271.6756,292.91895 c -6.8331,11.97154 -13.66111,23.94614 -20.51689,35.90481 -4.00644,6.98789 -8.60971,13.88636 -11.71276,21.33965 32.91421,0 65.45311,1.01448 94.16544,-17.7302 22.94521,-14.97942 36.14531,-38.04217 48.88135,-61.53137 7.38759,-13.62587 15.36116,-26.93436 22.55229,-40.64695 6.63561,-12.65679 14.45338,-24.77026 21.42433,-37.25971 17.94563,-32.14836 36.15208,-64.15953 54.29078,-96.197812 6.71352,-11.85434 13.37624,-23.73511 20.13041,-35.56608 3.48547,-6.10382 7.85841,-12.13539 10.55127,-18.62986 H 293.30316 238.09105 c -12.63985,0 -25.42806,-0.59616 -37.93716,1.5023 -11.49394,1.9282 -22.51875,5.92847 -33.19501,10.49787 -31.38521,13.4325 -57.19331,40.22507 -69.502555,72.003542 -7.51969,19.41299 -10.33923,40.62765 -9.43349,61.30917 0.4251,9.71394 1.4931,19.27377 3.59557,28.79159 0.90879,4.11584 1.55305,8.77907 3.53086,12.53281 M 1.999995,487.00817 H 227.92931 c 16.82615,0 33.67126,0.0779 50.46997,-0.33534 6.60919,-0.1592 13.40401,0.56567 19.98475,-0.061 21.67906,-2.06283 43.04851,-8.80684 61.64788,-20.20153 44.54907,-27.29444 69.97712,-77.51714 66.42051,-129.45718 -0.6368,-9.29494 -1.80201,-18.30603 -3.75645,-27.4367 -0.78923,-3.68125 -1.29732,-8.51079 -3.72597,-11.51663 -4.60327,8.08603 -6.98789,17.44974 -11.26598,25.74307 -9.38945,18.20069 -21.6208,34.96011 -36.83292,48.71877 -15.67279,14.17562 -35.28291,25.2045 -56.22829,28.98128 -20.07316,3.61758 -41.02293,1.56152 -61.30915,1.56152 H 147.31285 c 3.3615,-8.0752 8.35126,-15.49327 12.72792,-23.03328 6.98077,-12.02845 13.74612,-24.17816 20.66322,-36.24354 18.57125,-32.39359 36.18459,-65.44736 55.22024,-97.55269 8.89592,-15.00381 17.50563,-30.21763 26.16546,-45.38911 3.393,-5.94495 9.85722,-13.73731 10.55127,-20.6622 -4.78177,-0.64392 -9.37149,-2.0083 -14.22643,-2.34093 -27.32797,-1.87145 -55.42179,2.60073 -78.58411,18.04251 -23.42959,15.61995 -34.86967,40.21779 -48.38682,63.89871 -20.56939,36.03692 -41.014465,72.16597 -61.842295,108.05316 -14.95165,25.7634 -29.55711,51.72665 -44.37201,77.56795 -4.85498,8.46812 -9.66649,16.96333 -14.56621,25.40435 -3.06163,5.27394 -6.56999,10.49707 -8.66309,16.25878 z"
       id="path1270" />
  </g>
</svg>
